<svg width="38" height="38" viewBox="0 0 30 30" fill="none" xmlns="http://www.w3.org/2000/svg">
<path d="M4.06253 25.7212V8.95438H9.18272V3.84619H20.8293V14.0746H25.9375V25.7212H16.8606V20.601H13.1394V25.7212H4.06253ZM5.48075 24.3029H9.18272V20.601H5.48075V24.3029ZM5.48075 19.1827H9.18272V15.4928H5.48075V19.1827ZM5.48075 14.0746H9.18272V10.3726H5.48075V14.0746ZM10.6009 19.1827H14.2909V15.4928H10.6009V19.1827ZM10.6009 14.0746H14.2909V10.3726H10.6009V14.0746ZM10.6009 8.95438H14.2909V5.26444H10.6009V8.95438ZM15.7091 19.1827H19.4111V15.4928H15.7091V19.1827ZM15.7091 14.0746H19.4111V10.3726H15.7091V14.0746ZM15.7091 8.95438H19.4111V5.26444H15.7091V8.95438ZM20.8293 24.3029H24.5193V20.601H20.8293V24.3029ZM20.8293 19.1827H24.5193V15.4928H20.8293V19.1827Z" fill="white"/>
</svg>
